<?xml version="1.0" encoding="utf-8"?>
<!-- Generator: Adobe Illustrator 24.0.1, SVG Export Plug-In . SVG Version: 6.00 Build 0)  -->
<svg version="1.1" id="Camada_1" xmlns="http://www.w3.org/2000/svg" xmlns:xlink="http://www.w3.org/1999/xlink" x="0px" y="0px"
	 viewBox="0 0 1000 450" style="enable-background:new 0 0 1000 450;" xml:space="preserve">
<style type="text/css">
	.st0{fill:#6F4BC3;}
	.st1{fill:#FAFAFA;}
</style>
<image style="display:none;overflow:visible;" width="197" height="87" xlink:href="5053CEF2.jpg"  transform="matrix(5.1624 0 0 5.1624 0 12)">
</image>
<g>
	<g>
		<rect x="17.8" y="256.6" class="st0" width="287" height="67"/>
		<rect x="178.8" y="184.6" class="st0" width="80" height="211"/>
		<polygon class="st0" points="86.8,296.6 17.8,256.6 127.2,54.4 213.8,54.6 		"/>
	</g>
	<g>
		<rect x="695.3" y="256.6" class="st0" width="287" height="67"/>
		<rect x="856.3" y="184.6" class="st0" width="80" height="211"/>
		<polygon class="st0" points="764.3,296.6 695.3,256.6 804.7,54.4 891.3,54.6 		"/>
	</g>
	<g>
		<g>
			<polyline class="st0" points="348.8,182.5 348.8,409.5 386.8,360.5 422.8,409.5 462.8,360.5 502.8,409.5 541.8,360.5 
				579.8,409.5 618.8,360.5 656.8,409.5 656.8,182.5 			"/>
			<circle class="st0" cx="502.3" cy="195" r="154.5"/>
		</g>
		<circle class="st1" cx="429.8" cy="187.5" r="30"/>
		<circle class="st1" cx="574.8" cy="188.5" r="30"/>
	</g>
</g>
</svg>
